#!OML:ASF I:\Actors\actors\Patient Classification 2\Patient 1\Session 1\actor1.ASF
:FULLY-SPECIFIED
:DEGREES

399
root -0.578369 18.1027 6.089 4.5171 -27.1957 -2.21882
lowerback 0.593622 -6.21445 -2.01528
upperback -2.87858 -8.30355 2.2033
thorax -2.68454 -4.08182 3.58278
lowerneck -9.40613 2.98035 10.7349
upperneck 28.3493 0.280181 4.3076
head 10.8327 1.59787 -0.26321
rclavicle -1.11997e-013 -4.77083e-015
rhumerus 21.8049 58.7343 -14.547
rradius 136.106
rwrist -76.4669
rhand -1.72619 -59.9977
rfingers 7.12502
rthumb 23.936 -88.5257
lclavicle -1.11997e-013 -4.77083e-015
lhumerus 20.3364 19.9346 79.5247
lradius 81.724
lwrist 91.104
lhand -43.1609 -9.4914
lfingers 7.12502
lthumb -16.0133 19.8668
rfemur 8.51766 14.8144 13.7677
rtibia -18.5511
rfoot 1.35915 -7.51507
rtoes -0.503683
lfemur 12.5241 15.8588 -13.3115
ltibia -2.54444e-014
lfoot -17.9349 14.2883
ltoes 3.53324
400
root -0.577382 18.102 6.08708 4.43127 -26.9466 -2.19943
lowerback 0.66565 -6.311 -2.09419
upperback -2.88312 -8.43388 2.28365
thorax -2.69704 -4.14423 3.71717
lowerneck -9.40367 2.97525 10.7549
upperneck 28.3405 0.307137 4.18213
head 10.8282 1.59806 -0.308882
rclavicle 1.23433e-014 5.36719e-015
rhumerus 22.3257 58.6275 -14.085
rradius 136.24
rwrist -76.694
rhand -1.51397 -59.3238
rfingers 7.12502
rthumb 24.1395 -87.825
lclavicle 1.23433e-014 5.36719e-015
lhumerus 21.3154 20.4429 79.2579
lradius 79.8987
lwrist 90.6329
lhand -43.2597 -9.37206
lfingers 7.12502
lthumb -16.1084 19.9785
rfemur 8.67746 14.6754 13.787
rtibia -18.6029
rfoot 1.316 -7.61523
rtoes -0.355256
lfemur 12.5597 15.6172 -13.306
ltibia -7.95139e-015
lfoot -17.9674 14.2371
ltoes 3.82636
401
root -0.575549 18.1032 6.08815 4.40126 -26.7467 -2.15939
lowerback 0.639314 -6.38483 -2.17272
upperback -2.89384 -8.53224 2.38617
thorax -2.65939 -4.19177 3.86149
lowerneck -9.41236 2.95987 10.6614
upperneck 28.334 0.335649 4.08183
head 10.8239 1.59054 -0.326465
rclavicle 5.2007e-014 1.78906e-015
rhumerus 22.753 58.5583 -13.7286
rradius 136.301
rwrist -76.8252
rhand -1.51299 -56.9665
rfingers 7.12502
rthumb 24.1404 -85.4675
lclavicle 5.2007e-014 1.78906e-015
lhumerus 21.5311 20.5944 79.0666
lradius 79.4754
lwrist 90.4437
lhand -42.7914 -8.99743
lfingers 7.12502
lthumb -15.6575 20.389
rfemur 8.76203 14.5738 13.762
rtibia -18.6407
rfoot 1.26923 -7.71691
rtoes -0.381569
lfemur 12.5369 15.4327 -13.3488
ltibia -1.27222e-014
lfoot -18.0187 14.2194
ltoes 3.89867
402
root -0.572307 18.1047 6.09285 4.42527 -26.5979 -2.10206
lowerback 0.512779 -6.40481 -2.19728
upperback -2.89832 -8.55676 2.44129
thorax -2.57952 -4.20509 3.91476
lowerneck -9.52279 2.91076 10.6746
upperneck 28.3849 0.297283 3.90313
head 10.8613 1.55877 -0.396419
rclavicle 9.88705e-014 3.35946e-014
rhumerus 22.9471 58.4178 -13.5402
rradius 136.309
rwrist -76.6952
rhand -1.2584 -55.8528
rfingers 7.12502
rthumb 24.3845 -84.3212
lclavicle 9.88705e-014 3.35946e-014
lhumerus 21.3287 20.3349 79.0643
lradius 79.9143
lwrist 90.2185
lhand -41.9846 -8.36937
lfingers 7.12502
lthumb -14.8804 21.0762
rfemur 8.76428 14.4851 13.6889
rtibia -18.6593
rfoot 1.22453 -7.77301
rtoes -0.53472
lfemur 12.4649 15.3064 -13.4342
ltibia 2.22639e-014
lfoot -18.0616 14.1738
ltoes 4.07703
403
root -0.569223 18.104 6.09957 4.4831 -26.5128 -2.12047
lowerback 0.330084 -6.35605 -2.07733
upperback -2.87336 -8.4868 2.4161
thorax -2.47784 -4.17556 3.7992
lowerneck -9.62979 2.84763 10.8242
upperneck 28.3842 0.193249 3.7953
head 10.8809 1.51696 -0.47171
rclavicle -7.81472e-014 -2.38542e-015
rhumerus 22.7876 58.2584 -13.6713
rradius 136.288
rwrist -76.5449
rhand -0.957367 -56.2694
rfingers 7.12502
rthumb 24.6731 -84.6987
lclavicle -7.81472e-014 -2.38542e-015
lhumerus 21.0645 19.6893 79.2111
lradius 80.5049
lwrist 89.9189
lhand -41.3341 -7.75481
lfingers 7.12502
lthumb -14.2536 21.7361
rfemur 8.7364 14.4119 13.6875
rtibia -18.6497
rfoot 1.19593 -7.74744
rtoes -0.771699
lfemur 12.419 15.2457 -13.4429
ltibia -4.77083e-015
lfoot -18.1215 14.1053
ltoes 4.39307
404
root -0.56707 18.1027 6.10586 4.51702 -26.4421 -2.12435
lowerback 0.133895 -6.28694 -1.9525
upperback -2.83938 -8.39046 2.34934
thorax -2.36779 -4.13322 3.63677
lowerneck -9.6179 2.78886 10.8604
upperneck 28.2874 0.076893 3.91904
head 10.8403 1.47784 -0.447864
rclavicle -1.38087e-013 1.49089e-014
rhumerus 22.4697 58.1119 -14.012
rradius 136.225
rwrist -76.6032
rhand -0.908631 -56.2645
rfingers 7.12502
rthumb 24.7198 -84.6875
lclavicle -1.38087e-013 1.49089e-014
lhumerus 20.8666 18.9405 79.4534
lradius 80.8561
lwrist 89.8266
lhand -41.1586 -7.25059
lfingers 7.12502
lthumb -14.0844 22.2521
rfemur 8.70765 14.3357 13.6845
rtibia -18.601
rfoot 1.13677 -7.69627
rtoes -1.13629
lfemur 12.3837 15.1964 -13.4614
ltibia -2.70347e-014
lfoot -18.1664 14.0919
ltoes 4.44807
405
root -0.564288 18.1017 6.10929 4.53099 -26.3207 -2.0937
lowerback -0.0168946 -6.22867 -1.86335
upperback -2.84489 -8.31021 2.28545
thorax -2.31688 -4.0964 3.50573
lowerneck -9.52219 2.70981 10.8216
upperneck 28.2051 -0.0449314 4.05395
head 10.7869 1.42859 -0.40916
rclavicle -1.23917e-013 4.57205e-015
rhumerus 22.0637 57.9881 -14.4082
rradius 136.128
rwrist -76.7642
rhand -1.01419 -55.6409
rfingers 7.12502
rthumb 24.6186 -84.0777
lclavicle -1.23917e-013 4.57205e-015
lhumerus 20.6895 18.2438 79.7902
lradius 80.8867
lwrist 89.795
lhand -41.3534 -6.80722
lfingers 7.12502
lthumb -14.2722 22.6823
rfemur 8.67676 14.2991 13.6456
rtibia -18.5295
rfoot 0.989492 -7.72226
rtoes -1.0035
lfemur 12.3147 15.0964 -13.5178
ltibia 1.11319e-014
lfoot -18.0958 14.1309
ltoes 4.19745
406
root -0.561401 18.1007 6.10886 4.50256 -26.1669 -2.04833
lowerback -0.120223 -6.19359 -1.7946
upperback -2.82692 -8.2618 2.22753
thorax -2.26194 -4.07521 3.39594
lowerneck -9.51556 2.64903 10.8083
upperneck 28.1804 -0.131408 4.08034
head 10.7732 1.39 -0.408184
rclavicle -1.28912e-013 -4.57205e-015
rhumerus 21.7649 57.8426 -14.6942
rradius 136.025
rwrist -76.8574
rhand -1.16546 -55.2554
rfingers 7.12502
rthumb 24.4736 -83.7119
lclavicle -1.28912e-013 -4.57205e-015
lhumerus 20.5859 17.7463 80.2197
lradius 80.6955
lwrist 89.7551
lhand -41.7061 -6.53973
lfingers 7.12502
lthumb -14.612 22.9255
rfemur 8.67827 14.2685 13.6037
rtibia -18.4555
rfoot 0.840615 -7.77841
rtoes -0.432354
lfemur 12.2625 14.959 -13.5757
ltibia -1.27222e-014
lfoot -17.9524 14.1919
ltoes 3.88219
407
root -0.5601 18.1013 6.10571 4.404 -26.0319 -2.00958
lowerback -0.128854 -6.17803 -1.73771
upperback -2.76 -8.24045 2.1754
thorax -2.20485 -4.06749 3.30632
lowerneck -9.60854 2.62355 10.764
upperneck 28.1808 -0.174579 4.09987
head 10.7893 1.37017 -0.398096
rclavicle -8.18558e-014 -3.77691e-015
rhumerus 21.7257 57.652 -14.7726
rradius 135.953
rwrist -76.8599
rhand -1.38322 -55.4546
rfingers 7.12502
rthumb 24.2648 -83.9391
lclavicle -8.18558e-014 -3.77691e-015
lhumerus 20.5166 17.481 80.6487
lradius 80.4914
lwrist 89.7793
lhand -42.1477 -6.59573
lfingers 7.12502
lthumb -15.0375 22.8382
rfemur 8.74598 14.2238 13.5998
rtibia -18.3713
rfoot 0.755151 -7.82735
rtoes -0.254794
lfemur 12.2932 14.8296 -13.5959
ltibia -2.70347e-014
lfoot -17.8442 14.2459
ltoes 3.47139
408
root -0.55968 18.1024 6.10051 4.2745 -25.8958 -2.04054
lowerback -0.00330166 -6.18788 -1.64293
upperback -2.69108 -8.25331 2.15903
thorax -2.21838 -4.07594 3.24902
lowerneck -9.70108 2.62075 10.7085
upperneck 28.2039 -0.176664 4.08994
head 10.8147 1.3655 -0.391647
rclavicle -1.00635e-015 -5.36719e-015
rhumerus 21.838 57.4947 -14.6974
rradius 135.919
rwrist -76.8041
rhand -1.56173 -56.0621
rfingers 7.12502
rthumb 24.0937 -84.5693
lclavicle -1.00635e-015 -5.36719e-015
lhumerus 20.3677 17.317 80.954
lradius 80.3965
lwrist 89.7439
lhand -42.487 -6.78741
lfingers 7.12502
lthumb -15.3643 22.6217
rfemur 8.88307 14.2413 13.6863
rtibia -18.2918
rfoot 0.646185 -7.9104
rtoes -0.30284
lfemur 12.3935 14.6942 -13.526
ltibia 7.95139e-015
lfoot -17.7257 14.3129
ltoes 2.84028
409
root -0.559517 18.1037 6.09434 4.19625 -25.7497 -2.11458
lowerback 0.127599 -6.23361 -1.56571
upperback -2.64511 -8.31371 2.1877
thorax -2.24662 -4.10715 3.24941
lowerneck -9.73895 2.63269 10.7217
upperneck 28.2122 -0.13276 3.97238
head 10.8249 1.37502 -0.43063
rclavicle -8.91798e-014 -8.94531e-015
rhumerus 21.9222 57.4888 -14.7181
rradius 135.845
rwrist -76.658
rhand -1.52192 -56.4196
rfingers 7.12502
rthumb 24.1319 -84.9218
lclavicle -8.91798e-014 -8.94531e-015
lhumerus 20.097 17.172 81.0334
lradius 80.4574
lwrist 89.7024
lhand -42.6728 -7.04152
lfingers 7.12502
lthumb -15.5432 22.3538
rfemur 8.99993 14.2541 13.8118
rtibia -18.2482
rfoot 0.543226 -8.00644
rtoes -0.295629
lfemur 12.4522 14.5547 -13.424
ltibia -1.90833e-014
lfoot -17.566 14.4299
ltoes 2.19734
410
root -0.560269 18.1056 6.08788 4.15103 -25.665 -2.16275
lowerback 0.218635 -6.28096 -1.54476
upperback -2.61499 -8.37697 2.20659
thorax -2.26244 -4.13892 3.26653
lowerneck -9.66914 2.62548 10.7121
upperneck 28.101 -0.112211 3.94334
head 10.7685 1.37423 -0.438726
rclavicle 4.58571e-014 -4.37326e-015
rhumerus 21.8898 57.5442 -14.9464
rradius 135.745
rwrist -76.5081
rhand -1.34849 -56.4465
rfingers 7.12502
rthumb 24.2981 -84.9266
lclavicle 4.58571e-014 -4.37326e-015
lhumerus 19.7471 17.0099 80.8882
lradius 80.6543
lwrist 89.7547
lhand -42.7793 -7.28979
lfingers 7.12502
lthumb -15.6458 22.0975
rfemur 9.06956 14.2675 13.9025
rtibia -18.2359
rfoot 0.500325 -8.11164
rtoes -0.486263
lfemur 12.4741 14.4777 -13.3528
ltibia 1.27222e-014
lfoot -17.4749 14.5146
ltoes 1.97469
411
root -0.561528 18.106 6.08078 4.08569 -25.6522 -2.16473
lowerback 0.305618 -6.30366 -1.53398
upperback -2.57117 -8.40815 2.17253
thorax -2.27034 -4.15496 3.23389
lowerneck -9.57057 2.6125 10.6978
upperneck 27.9119 -0.130933 4.06
head 10.6782 1.36732 -0.399054
rclavicle -1.61165e-013 5.1684e-015
rhumerus 21.7489 57.4554 -15.2404
rradius 135.703
rwrist -76.4301
rhand -1.14851 -56.5576
rfingers 7.12502
rthumb 24.4899 -85.0118
lclavicle -1.61165e-013 5.1684e-015
lhumerus 19.4674 16.8345 80.6662
lradius 80.8632
lwrist 89.8223
lhand -42.8027 -7.30931
lfingers 7.12502
lthumb -15.6683 22.0763
rfemur 9.14206 14.3192 13.9412
rtibia -18.2503
rfoot 0.488504 -8.20388
rtoes -0.625195
lfemur 12.5176 14.4669 -13.3183
ltibia -2.38542e-014
lfoot -17.4646 14.5099
ltoes 2.16523
412
root -0.562111 18.105 6.07443 4.06174 -25.6687 -2.16584
lowerback 0.38039 -6.32394 -1.51375
upperback -2.56206 -8.43569 2.1524
thorax -2.3068 -4.16856 3.21159
lowerneck -9.481 2.61615 10.706
upperneck 27.7715 -0.126653 4.14247
head 10.6093 1.37151 -0.372256
rclavicle 7.58053e-014 5.96354e-015
rhumerus 21.6131 57.3867 -15.4707
rradius 135.611
rwrist -76.2413
rhand -0.990093 -56.6255
rfingers 7.12502
rthumb 24.6417 -85.0591
lclavicle 7.58053e-014 5.96354e-015
lhumerus 19.1858 16.7152 80.4597
lradius 81.0731
lwrist 89.707
lhand -42.733 -7.30096
lfingers 7.12502
lthumb -15.6012 22.0899
rfemur 9.1741 14.2763 13.9631
rtibia -18.2997
rfoot 0.569926 -8.20654
rtoes -0.690729
lfemur 12.5329 14.4899 -13.296
ltibia 2.54444e-014
lfoot -17.4539 14.4477
ltoes 2.35386
413
root -0.56321 18.1046 6.06997 4.11628 -25.7119 -2.16817
lowerback 0.405624 -6.34706 -1.52167
upperback -2.60817 -8.46662 2.18127
thorax -2.36115 -4.18242 3.25213
lowerneck -9.33897 2.60912 10.6233
upperneck 27.6014 -0.100983 4.20273
head 10.5169 1.37171 -0.336946
rclavicle -1.07381e-013 4.57205e-015
rhumerus 21.4603 57.5005 -15.7392
rradius 135.36
rwrist -75.6944
rhand -1.05449 -56.3624
rfingers 7.12502
rthumb 24.58 -84.8044
lclavicle -1.07381e-013 4.57205e-015
lhumerus 18.7936 16.6475 80.2552
lradius 81.326
lwrist 89.2577
lhand -42.5131 -7.46152
lfingers 7.12502
lthumb -15.3895 21.9457
rfemur 9.11883 14.2008 13.9657
rtibia -18.3621
rfoot 0.663141 -8.18872
rtoes -0.874082
lfemur 12.4773 14.5481 -13.292
ltibia -3.02153e-014
lfoot -17.4286 14.3769
ltoes 2.44535
